<?xml version='1.0' encoding='UTF-8'?>
<svg width="49mm" height="49mm" version="1.1" viewBox="0 0 49 49" xmlns="http://www.w3.org/2000/svg"><path d="M4,4H5V5H4zM5,4H6V5H5zM6,4H7V5H6zM7,4H8V5H7zM8,4H9V5H8zM9,4H10V5H9zM10,4H11V5H10zM15,4H16V5H15zM17,4H18V5H17zM19,4H20V5H19zM22,4H23V5H22zM23,4H24V5H23zM24,4H25V5H24zM25,4H26V5H25zM27,4H28V5H27zM29,4H30V5H29zM34,4H35V5H34zM35,4H36V5H35zM36,4H37V5H36zM38,4H39V5H38zM39,4H40V5H39zM40,4H41V5H40zM41,4H42V5H41zM42,4H43V5H42zM43,4H44V5H43zM44,4H45V5H44zM4,5H5V6H4zM10,5H11V6H10zM17,5H18V6H17zM19,5H20V6H19zM22,5H23V6H22zM24,5H25V6H24zM25,5H26V6H25zM26,5H27V6H26zM30,5H31V6H30zM31,5H32V6H31zM32,5H33V6H32zM36,5H37V6H36zM38,5H39V6H38zM44,5H45V6H44zM4,6H5V7H4zM6,6H7V7H6zM7,6H8V7H7zM8,6H9V7H8zM10,6H11V7H10zM12,6H13V7H12zM14,6H15V7H14zM15,6H16V7H15zM16,6H17V7H16zM17,6H18V7H17zM19,6H20V7H19zM20,6H21V7H20zM24,6H25V7H24zM25,6H26V7H25zM26,6H27V7H26zM38,6H39V7H38zM40,6H41V7H40zM41,6H42V7H41zM42,6H43V7H42zM44,6H45V7H44zM4,7H5V8H4zM6,7H7V8H6zM7,7H8V8H7zM8,7H9V8H8zM10,7H11V8H10zM12,7H13V8H12zM13,7H14V8H13zM14,7H15V8H14zM15,7H16V8H15zM16,7H17V8H16zM18,7H19V8H18zM20,7H21V8H20zM22,7H23V8H22zM23,7H24V8H23zM24,7H25V8H24zM26,7H27V8H26zM27,7H28V8H27zM28,7H29V8H28zM29,7H30V8H29zM30,7H31V8H30zM31,7H32V8H31zM33,7H34V8H33zM36,7H37V8H36zM38,7H39V8H38zM40,7H41V8H40zM41,7H42V8H41zM42,7H43V8H42zM44,7H45V8H44zM4,8H5V9H4zM6,8H7V9H6zM7,8H8V9H7zM8,8H9V9H8zM10,8H11V9H10zM12,8H13V9H12zM13,8H14V9H13zM15,8H16V9H15zM16,8H17V9H16zM19,8H20V9H19zM20,8H21V9H20zM23,8H24V9H23zM25,8H26V9H25zM26,8H27V9H26zM27,8H28V9H27zM28,8H29V9H28zM29,8H30V9H29zM34,8H35V9H34zM35,8H36V9H35zM36,8H37V9H36zM38,8H39V9H38zM40,8H41V9H40zM41,8H42V9H41zM42,8H43V9H42zM44,8H45V9H44zM4,9H5V10H4zM10,9H11V10H10zM12,9H13V10H12zM13,9H14V10H13zM14,9H15V10H14zM15,9H16V10H15zM16,9H17V10H16zM18,9H19V10H18zM20,9H21V10H20zM28,9H29V10H28zM29,9H30V10H29zM30,9H31V10H30zM31,9H32V10H31zM32,9H33V10H32zM34,9H35V10H34zM38,9H39V10H38zM44,9H45V10H44zM4,10H5V11H4zM5,10H6V11H5zM6,10H7V11H6zM7,10H8V11H7zM8,10H9V11H8zM9,10H10V11H9zM10,10H11V11H10zM12,10H13V11H12zM14,10H15V11H14zM16,10H17V11H16zM18,10H19V11H18zM20,10H21V11H20zM22,10H23V11H22zM24,10H25V11H24zM26,10H27V11H26zM28,10H29V11H28zM30,10H31V11H30zM32,10H33V11H32zM34,10H35V11H34zM36,10H37V11H36zM38,10H39V11H38zM39,10H40V11H39zM40,10H41V11H40zM41,10H42V11H41zM42,10H43V11H42zM43,10H44V11H43zM44,10H45V11H44zM12,11H13V12H12zM13,11H14V12H13zM14,11H15V12H14zM15,11H16V12H15zM16,11H17V12H16zM17,11H18V12H17zM18,11H19V12H18zM19,11H20V12H19zM22,11H23V12H22zM25,11H26V12H25zM26,11H27V12H26zM30,11H31V12H30zM34,11H35V12H34zM4,12H5V13H4zM6,12H7V13H6zM7,12H8V13H7zM8,12H9V13H8zM9,12H10V13H9zM10,12H11V13H10zM13,12H14V13H13zM14,12H15V13H14zM16,12H17V13H16zM19,12H20V13H19zM20,12H21V13H20zM21,12H22V13H21zM24,12H25V13H24zM26,12H27V13H26zM28,12H29V13H28zM29,12H30V13H29zM30,12H31V13H30zM31,12H32V13H31zM33,12H34V13H33zM35,12H36V13H35zM36,12H37V13H36zM38,12H39V13H38zM39,12H40V13H39zM40,12H41V13H40zM41,12H42V13H41zM42,12H43V13H42zM4,13H5V14H4zM5,13H6V14H5zM6,13H7V14H6zM7,13H8V14H7zM9,13H10V14H9zM11,13H12V14H11zM12,13H13V14H12zM13,13H14V14H13zM15,13H16V14H15zM16,13H17V14H16zM17,13H18V14H17zM18,13H19V14H18zM19,13H20V14H19zM20,13H21V14H20zM22,13H23V14H22zM23,13H24V14H23zM24,13H25V14H24zM27,13H28V14H27zM29,13H30V14H29zM32,13H33V14H32zM35,13H36V14H35zM36,13H37V14H36zM37,13H38V14H37zM38,13H39V14H38zM39,13H40V14H39zM40,13H41V14H40zM42,13H43V14H42zM43,13H44V14H43zM44,13H45V14H44zM5,14H6V15H5zM8,14H9V15H8zM10,14H11V15H10zM11,14H12V15H11zM13,14H14V15H13zM15,14H16V15H15zM20,14H21V15H20zM24,14H25V15H24zM26,14H27V15H26zM29,14H30V15H29zM30,14H31V15H30zM31,14H32V15H31zM32,14H33V15H32zM33,14H34V15H33zM34,14H35V15H34zM36,14H37V15H36zM39,14H40V15H39zM40,14H41V15H40zM6,15H7V16H6zM8,15H9V16H8zM9,15H10V16H9zM12,15H13V16H12zM15,15H16V16H15zM19,15H20V16H19zM22,15H23V16H22zM25,15H26V16H25zM26,15H27V16H26zM30,15H31V16H30zM35,15H36V16H35zM36,15H37V16H36zM38,15H39V16H38zM41,15H42V16H41zM43,15H44V16H43zM4,16H5V17H4zM5,16H6V17H5zM6,16H7V17H6zM7,16H8V17H7zM8,16H9V17H8zM10,16H11V17H10zM15,16H16V17H15zM16,16H17V17H16zM18,16H19V17H18zM19,16H20V17H19zM21,16H22V17H21zM22,16H23V17H22zM23,16H24V17H23zM28,16H29V17H28zM29,16H30V17H29zM30,16H31V17H30zM33,16H34V17H33zM35,16H36V17H35zM37,16H38V17H37zM39,16H40V17H39zM41,16H42V17H41zM42,16H43V17H42zM4,17H5V18H4zM6,17H7V18H6zM8,17H9V18H8zM9,17H10V18H9zM11,17H12V18H11zM13,17H14V18H13zM16,17H17V18H16zM19,17H20V18H19zM20,17H21V18H20zM21,17H22V18H21zM22,17H23V18H22zM24,17H25V18H24zM25,17H26V18H25zM26,17H27V18H26zM27,17H28V18H27zM29,17H30V18H29zM32,17H33V18H32zM34,17H35V18H34zM35,17H36V18H35zM36,17H37V18H36zM37,17H38V18H37zM38,17H39V18H38zM39,17H40V18H39zM40,17H41V18H40zM41,17H42V18H41zM42,17H43V18H42zM43,17H44V18H43zM44,17H45V18H44zM4,18H5V19H4zM5,18H6V19H5zM8,18H9V19H8zM9,18H10V19H9zM10,18H11V19H10zM11,18H12V19H11zM12,18H13V19H12zM14,18H15V19H14zM15,18H16V19H15zM16,18H17V19H16zM18,18H19V19H18zM19,18H20V19H19zM22,18H23V19H22zM23,18H24V19H23zM26,18H27V19H26zM28,18H29V19H28zM30,18H31V19H30zM31,18H32V19H31zM33,18H34V19H33zM37,18H38V19H37zM39,18H40V19H39zM42,18H43V19H42zM5,19H6V20H5zM7,19H8V20H7zM8,19H9V20H8zM9,19H10V20H9zM13,19H14V20H13zM16,19H17V20H16zM17,19H18V20H17zM22,19H23V20H22zM23,19H24V20H23zM24,19H25V20H24zM25,19H26V20H25zM28,19H29V20H28zM30,19H31V20H30zM35,19H36V20H35zM38,19H39V20H38zM39,19H40V20H39zM41,19H42V20H41zM43,19H44V20H43zM4,20H5V21H4zM5,20H6V21H5zM6,20H7V21H6zM10,20H11V21H10zM12,20H13V21H12zM14,20H15V21H14zM16,20H17V21H16zM17,20H18V21H17zM18,20H19V21H18zM19,20H20V21H19zM20,20H21V21H20zM21,20H22V21H21zM23,20H24V21H23zM26,20H27V21H26zM27,20H28V21H27zM28,20H29V21H28zM29,20H30V21H29zM30,20H31V21H30zM31,20H32V21H31zM32,20H33V21H32zM33,20H34V21H33zM37,20H38V21H37zM39,20H40V21H39zM42,20H43V21H42zM44,20H45V21H44zM6,21H7V22H6zM12,21H13V22H12zM15,21H16V22H15zM19,21H20V22H19zM21,21H22V22H21zM22,21H23V22H22zM23,21H24V22H23zM25,21H26V22H25zM27,21H28V22H27zM28,21H29V22H28zM32,21H33V22H32zM34,21H35V22H34zM35,21H36V22H35zM36,21H37V22H36zM38,21H39V22H38zM39,21H40V22H39zM40,21H41V22H40zM41,21H42V22H41zM43,21H44V22H43zM44,21H45V22H44zM5,22H6V23H5zM10,22H11V23H10zM12,22H13V23H12zM15,22H16V23H15zM17,22H18V23H17zM21,22H22V23H21zM28,22H29V23H28zM30,22H31V23H30zM31,22H32V23H31zM34,22H35V23H34zM36,22H37V23H36zM40,22H41V23H40zM41,22H42V23H41zM43,22H44V23H43zM4,23H5V24H4zM7,23H8V24H7zM8,23H9V24H8zM9,23H10V24H9zM11,23H12V24H11zM12,23H13V24H12zM13,23H14V24H13zM15,23H16V24H15zM16,23H17V24H16zM17,23H18V24H17zM20,23H21V24H20zM21,23H22V24H21zM22,23H23V24H22zM24,23H25V24H24zM25,23H26V24H25zM26,23H27V24H26zM27,23H28V24H27zM28,23H29V24H28zM30,23H31V24H30zM31,23H32V24H31zM32,23H33V24H32zM36,23H37V24H36zM37,23H38V24H37zM40,23H41V24H40zM41,23H42V24H41zM43,23H44V24H43zM44,23H45V24H44zM4,24H5V25H4zM5,24H6V25H5zM7,24H8V25H7zM9,24H10V25H9zM10,24H11V25H10zM11,24H12V25H11zM12,24H13V25H12zM15,24H16V25H15zM17,24H18V25H17zM19,24H20V25H19zM24,24H25V25H24zM25,24H26V25H25zM28,24H29V25H28zM29,24H30V25H29zM30,24H31V25H30zM31,24H32V25H31zM33,24H34V25H33zM35,24H36V25H35zM42,24H43V25H42zM43,24H44V25H43zM4,25H5V26H4zM5,25H6V26H5zM7,25H8V26H7zM12,25H13V26H12zM14,25H15V26H14zM15,25H16V26H15zM18,25H19V26H18zM19,25H20V26H19zM21,25H22V26H21zM22,25H23V26H22zM23,25H24V26H23zM27,25H28V26H27zM29,25H30V26H29zM35,25H36V26H35zM36,25H37V26H36zM37,25H38V26H37zM38,25H39V26H38zM39,25H40V26H39zM40,25H41V26H40zM41,25H42V26H41zM42,25H43V26H42zM43,25H44V26H43zM44,25H45V26H44zM4,26H5V27H4zM6,26H7V27H6zM8,26H9V27H8zM10,26H11V27H10zM11,26H12V27H11zM12,26H13V27H12zM14,26H15V27H14zM19,26H20V27H19zM22,26H23V27H22zM25,26H26V27H25zM31,26H32V27H31zM32,26H33V27H32zM36,26H37V27H36zM38,26H39V27H38zM4,27H5V28H4zM7,27H8V28H7zM13,27H14V28H13zM14,27H15V28H14zM16,27H17V28H16zM17,27H18V28H17zM22,27H23V28H22zM25,27H26V28H25zM27,27H28V28H27zM32,27H33V28H32zM35,27H36V28H35zM37,27H38V28H37zM38,27H39V28H38zM39,27H40V28H39zM41,27H42V28H41zM43,27H44V28H43zM4,28H5V29H4zM8,28H9V29H8zM9,28H10V29H9zM10,28H11V29H10zM13,28H14V29H13zM14,28H15V29H14zM16,28H17V29H16zM19,28H20V29H19zM21,28H22V29H21zM27,28H28V29H27zM28,28H29V29H28zM29,28H30V29H29zM30,28H31V29H30zM33,28H34V29H33zM42,28H43V29H42zM4,29H5V30H4zM7,29H8V30H7zM8,29H9V30H8zM12,29H13V30H12zM18,29H19V30H18zM20,29H21V30H20zM21,29H22V30H21zM23,29H24V30H23zM24,29H25V30H24zM25,29H26V30H25zM27,29H28V30H27zM32,29H33V30H32zM33,29H34V30H33zM34,29H35V30H34zM35,29H36V30H35zM37,29H38V30H37zM38,29H39V30H38zM39,29H40V30H39zM40,29H41V30H40zM41,29H42V30H41zM43,29H44V30H43zM44,29H45V30H44zM4,30H5V31H4zM6,30H7V31H6zM10,30H11V31H10zM11,30H12V31H11zM12,30H13V31H12zM14,30H15V31H14zM16,30H17V31H16zM24,30H25V31H24zM28,30H29V31H28zM29,30H30V31H29zM30,30H31V31H30zM31,30H32V31H31zM32,30H33V31H32zM33,30H34V31H33zM36,30H37V31H36zM38,30H39V31H38zM4,31H5V32H4zM5,31H6V32H5zM7,31H8V32H7zM8,31H9V32H8zM9,31H10V32H9zM11,31H12V32H11zM12,31H13V32H12zM14,31H15V32H14zM15,31H16V32H15zM16,31H17V32H16zM17,31H18V32H17zM19,31H20V32H19zM23,31H24V32H23zM24,31H25V32H24zM25,31H26V32H25zM26,31H27V32H26zM31,31H32V32H31zM32,31H33V32H32zM35,31H36V32H35zM36,31H37V32H36zM39,31H40V32H39zM41,31H42V32H41zM43,31H44V32H43zM44,31H45V32H44zM6,32H7V33H6zM7,32H8V33H7zM10,32H11V33H10zM12,32H13V33H12zM13,32H14V33H13zM14,32H15V33H14zM15,32H16V33H15zM18,32H19V33H18zM20,32H21V33H20zM21,32H22V33H21zM24,32H25V33H24zM28,32H29V33H28zM29,32H30V33H29zM30,32H31V33H30zM31,32H32V33H31zM33,32H34V33H33zM35,32H36V33H35zM36,32H37V33H36zM41,32H42V33H41zM42,32H43V33H42zM44,32H45V33H44zM4,33H5V34H4zM5,33H6V34H5zM7,33H8V34H7zM8,33H9V34H8zM9,33H10V34H9zM12,33H13V34H12zM13,33H14V34H13zM14,33H15V34H14zM16,33H17V34H16zM19,33H20V34H19zM20,33H21V34H20zM22,33H23V34H22zM27,33H28V34H27zM32,33H33V34H32zM35,33H36V34H35zM36,33H37V34H36zM37,33H38V34H37zM38,33H39V34H38zM40,33H41V34H40zM42,33H43V34H42zM43,33H44V34H43zM44,33H45V34H44zM4,34H5V35H4zM6,34H7V35H6zM7,34H8V35H7zM8,34H9V35H8zM9,34H10V35H9zM10,34H11V35H10zM12,34H13V35H12zM13,34H14V35H13zM15,34H16V35H15zM16,34H17V35H16zM17,34H18V35H17zM18,34H19V35H18zM22,34H23V35H22zM24,34H25V35H24zM26,34H27V35H26zM29,34H30V35H29zM30,34H31V35H30zM31,34H32V35H31zM32,34H33V35H32zM36,34H37V35H36zM37,34H38V35H37zM38,34H39V35H38zM39,34H40V35H39zM41,34H42V35H41zM4,35H5V36H4zM7,35H8V36H7zM8,35H9V36H8zM9,35H10V36H9zM11,35H12V36H11zM12,35H13V36H12zM14,35H15V36H14zM15,35H16V36H15zM17,35H18V36H17zM20,35H21V36H20zM25,35H26V36H25zM26,35H27V36H26zM27,35H28V36H27zM28,35H29V36H28zM31,35H32V36H31zM32,35H33V36H32zM37,35H38V36H37zM38,35H39V36H38zM39,35H40V36H39zM41,35H42V36H41zM44,35H45V36H44zM4,36H5V37H4zM6,36H7V37H6zM7,36H8V37H7zM9,36H10V37H9zM10,36H11V37H10zM11,36H12V37H11zM12,36H13V37H12zM15,36H16V37H15zM17,36H18V37H17zM18,36H19V37H18zM20,36H21V37H20zM21,36H22V37H21zM26,36H27V37H26zM29,36H30V37H29zM30,36H31V37H30zM32,36H33V37H32zM33,36H34V37H33zM36,36H37V37H36zM37,36H38V37H37zM38,36H39V37H38zM39,36H40V37H39zM40,36H41V37H40zM42,36H43V37H42zM43,36H44V37H43zM12,37H13V38H12zM14,37H15V38H14zM16,37H17V38H16zM19,37H20V38H19zM20,37H21V38H20zM22,37H23V38H22zM23,37H24V38H23zM24,37H25V38H24zM27,37H28V38H27zM32,37H33V38H32zM34,37H35V38H34zM36,37H37V38H36zM40,37H41V38H40zM43,37H44V38H43zM44,37H45V38H44zM4,38H5V39H4zM5,38H6V39H5zM6,38H7V39H6zM7,38H8V39H7zM8,38H9V39H8zM9,38H10V39H9zM10,38H11V39H10zM17,38H18V39H17zM18,38H19V39H18zM19,38H20V39H19zM22,38H23V39H22zM24,38H25V39H24zM26,38H27V39H26zM31,38H32V39H31zM33,38H34V39H33zM34,38H35V39H34zM35,38H36V39H35zM36,38H37V39H36zM38,38H39V39H38zM40,38H41V39H40zM41,38H42V39H41zM4,39H5V40H4zM10,39H11V40H10zM12,39H13V40H12zM16,39H17V40H16zM17,39H18V40H17zM20,39H21V40H20zM23,39H24V40H23zM24,39H25V40H24zM27,39H28V40H27zM30,39H31V40H30zM32,39H33V40H32zM36,39H37V40H36zM40,39H41V40H40zM41,39H42V40H41zM4,40H5V41H4zM6,40H7V41H6zM7,40H8V41H7zM8,40H9V41H8zM10,40H11V41H10zM12,40H13V41H12zM14,40H15V41H14zM15,40H16V41H15zM16,40H17V41H16zM17,40H18V41H17zM22,40H23V41H22zM23,40H24V41H23zM24,40H25V41H24zM25,40H26V41H25zM26,40H27V41H26zM27,40H28V41H27zM28,40H29V41H28zM29,40H30V41H29zM30,40H31V41H30zM33,40H34V41H33zM34,40H35V41H34zM36,40H37V41H36zM37,40H38V41H37zM38,40H39V41H38zM39,40H40V41H39zM40,40H41V41H40zM42,40H43V41H42zM4,41H5V42H4zM6,41H7V42H6zM7,41H8V42H7zM8,41H9V42H8zM10,41H11V42H10zM12,41H13V42H12zM14,41H15V42H14zM15,41H16V42H15zM17,41H18V42H17zM18,41H19V42H18zM20,41H21V42H20zM21,41H22V42H21zM23,41H24V42H23zM27,41H28V42H27zM33,41H34V42H33zM34,41H35V42H34zM35,41H36V42H35zM36,41H37V42H36zM37,41H38V42H37zM39,41H40V42H39zM42,41H43V42H42zM43,41H44V42H43zM44,41H45V42H44zM4,42H5V43H4zM6,42H7V43H6zM7,42H8V43H7zM8,42H9V43H8zM10,42H11V43H10zM12,42H13V43H12zM16,42H17V43H16zM17,42H18V43H17zM19,42H20V43H19zM24,42H25V43H24zM26,42H27V43H26zM30,42H31V43H30zM31,42H32V43H31zM33,42H34V43H33zM34,42H35V43H34zM35,42H36V43H35zM37,42H38V43H37zM38,42H39V43H38zM39,42H40V43H39zM40,42H41V43H40zM41,42H42V43H41zM4,43H5V44H4zM10,43H11V44H10zM14,43H15V44H14zM15,43H16V44H15zM16,43H17V44H16zM17,43H18V44H17zM22,43H23V44H22zM24,43H25V44H24zM25,43H26V44H25zM27,43H28V44H27zM30,43H31V44H30zM31,43H32V44H31zM36,43H37V44H36zM40,43H41V44H40zM41,43H42V44H41zM43,43H44V44H43zM4,44H5V45H4zM5,44H6V45H5zM6,44H7V45H6zM7,44H8V45H7zM8,44H9V45H8zM9,44H10V45H9zM10,44H11V45H10zM12,44H13V45H12zM14,44H15V45H14zM15,44H16V45H15zM17,44H18V45H17zM18,44H19V45H18zM19,44H20V45H19zM20,44H21V45H20zM22,44H23V45H22zM23,44H24V45H23zM26,44H27V45H26zM27,44H28V45H27zM29,44H30V45H29zM30,44H31V45H30zM31,44H32V45H31zM33,44H34V45H33zM35,44H36V45H35zM39,44H40V45H39zM40,44H41V45H40zM42,44H43V45H42z" id="qr-path" fill="#000000" fill-opacity="1" fill-rule="nonzero" stroke="none"/></svg>